<svg width="38" height="24" viewBox="0 0 38 24" fill="none" xmlns="http://www.w3.org/2000/svg">
<path d="M19.5747 16.5411C19.5747 13.6151 18.183 11.4522 15.3077 10.6416C17.4056 9.6425 18.4997 8.12883 18.4997 5.77442C18.4997 1.13208 15.029 0 11.0247 0H0V23.3082H11.3335C15.5832 23.3082 19.5747 21.2768 19.5747 16.5411ZM5.1395 3.97892H9.96233C11.8164 3.97892 13.4852 4.49825 13.4852 6.64208C13.4852 8.62125 12.1869 9.41766 10.3502 9.41766H5.1395V3.97892ZM5.13792 19.3499V12.9311H10.7397C13.0023 12.9311 14.4337 13.8716 14.4337 16.2592C14.4337 18.6137 12.7252 19.3499 10.6337 19.3499H5.13792Z" fill="white"/>
<path d="M29.7603 23.75C33.8042 23.75 36.423 21.9339 37.6833 18.0737H33.5793C33.1376 19.5146 31.3167 20.2761 29.9044 20.2761C27.1795 20.2761 25.7481 18.6849 25.7481 15.9806H37.9604C38.3467 10.5687 35.3321 5.95648 29.7587 5.95648C24.5986 5.95648 21.0963 9.82298 21.0963 14.8881C21.0963 20.1447 24.415 23.75 29.7603 23.75ZM29.6147 9.45881C31.9501 9.45881 33.1249 10.8268 33.3212 13.0641H25.7545C25.9081 10.8458 27.3853 9.45881 29.6147 9.45881Z" fill="white"/>
<path d="M24.8062 1.22394H34.2872V3.51977H24.8062V1.22394Z" fill="white"/>
</svg>
