<svg width="416" height="420" viewBox="0 0 416 420" fill="none" xmlns="http://www.w3.org/2000/svg">
<path d="M327.623 532.824V475.376L306.444 480.24C288.927 484.26 271.006 486.284 253.028 486.272C122.915 486.272 17.0504 381.062 17.0504 251.724C17.0504 122.386 122.915 17.1755 253.028 17.1755C383.14 17.1755 489.005 122.399 489.005 251.724C489.002 261.461 488.398 271.189 487.194 280.853L484.803 300.09H561.72V532.824H327.623Z" fill="#7F86FF"/>
<path d="M253.028 34.351C311.03 34.351 366.656 57.2527 407.67 98.018C448.684 138.783 471.725 194.073 471.725 251.724C471.721 260.754 471.162 269.775 470.052 278.737L465.242 317.32H544.44V515.649H344.903V453.817L302.518 463.518C286.277 467.229 269.665 469.101 253 469.097C194.998 469.097 139.371 446.195 98.3578 405.43C57.3441 364.664 34.3029 309.375 34.3029 251.724C34.3029 194.073 57.3441 138.783 98.3578 98.018C139.371 57.2527 194.998 34.351 253 34.351H253.028ZM253 0C217.33 0.036036 182.069 7.56116 149.528 22.0826C116.987 36.604 87.8992 57.7941 64.1696 84.2651C40.44 110.736 22.6039 141.891 11.8295 175.689C1.05512 209.488 -2.41458 245.167 1.64767 280.391C5.70991 315.614 17.2125 349.588 35.402 380.086C53.5915 410.584 78.0577 436.92 107.198 457.367C136.339 477.814 169.496 491.913 204.499 498.738C239.503 505.564 275.562 504.963 310.315 496.976V550H579V282.969H504.35C505.639 272.603 506.285 262.169 506.285 251.724C506.285 184.963 479.603 120.936 432.108 73.7282C384.613 26.5208 320.196 0 253.028 0H253Z" fill="#1E1E1E"/>
<path d="M150.923 137.06H132.427V225.947H150.923V137.06Z" fill="white"/>
<path d="M186.396 190.689V172.304H96.9682V190.689H186.396Z" fill="white"/>
<path d="M287.781 137.06H269.284V225.947H287.781V137.06Z" fill="white"/>
<path d="M323.254 190.689V172.304H233.826V190.689H323.254Z" fill="white"/>
</svg>
