<svg width="217" height="346" viewBox="0 0 217 346" fill="none" xmlns="http://www.w3.org/2000/svg">
<path d="M206.532 335.195V299.055L193.181 302.115C182.139 304.644 170.841 305.917 159.508 305.909C77.4853 305.909 10.7484 239.723 10.7484 158.357C10.7484 76.9916 77.4853 10.8049 159.508 10.8049C241.53 10.8049 308.267 77.0003 308.267 158.357C308.266 164.483 307.884 170.603 307.126 176.682L305.618 188.784H354.106V335.195H206.532Z" fill="#5FFF7F"/>
<path d="M159.508 21.6099C196.072 21.6099 231.139 36.0171 256.994 61.6622C282.849 87.3073 297.374 122.09 297.374 158.357C297.371 164.038 297.019 169.713 296.32 175.351L293.287 199.623H343.213V324.39H217.426V285.492L190.707 291.595C180.468 293.93 169.996 295.107 159.491 295.104C122.926 295.104 87.8594 280.697 62.0045 255.052C36.1496 229.407 21.6244 194.625 21.6244 158.357C21.6244 122.09 36.1496 87.3073 62.0045 61.6622C87.8594 36.0171 122.926 21.6099 159.491 21.6099H159.508ZM159.491 0C137.004 0.0226699 114.776 4.75666 94.2622 13.8919C73.7483 23.0272 55.4114 36.3577 40.4523 53.0104C25.4933 69.6631 14.2495 89.2623 7.4573 110.525C0.665148 131.787 -1.52214 154.232 1.03868 176.391C3.59951 198.55 10.8507 219.923 22.3173 239.109C33.784 258.295 49.2074 274.862 67.5775 287.725C85.9476 300.589 106.85 309.458 128.916 313.752C150.982 318.046 173.713 317.668 195.622 312.643V346H365V178.013H317.941C318.753 171.492 319.161 164.928 319.161 158.357C319.161 116.358 302.34 76.0795 272.4 46.3817C242.459 16.684 201.851 0 159.508 0H159.491Z" fill="#1E1E1E"/>
<path d="M95.1415 86.2234H83.4813V142.141H95.1415V86.2234Z" fill="white"/>
<path d="M117.503 119.961V108.395H61.1277V119.961H117.503Z" fill="white"/>
<path d="M181.416 86.2234H169.756V142.141H181.416V86.2234Z" fill="white"/>
<path d="M203.779 119.961V108.395H147.403V119.961H203.779Z" fill="white"/>
</svg>
