<svg width="29" height="25" viewBox="0 0 29 25" fill="none" xmlns="http://www.w3.org/2000/svg">
<g clip-path="url(#clip0)">
<path d="M28.9928 25V24.999H29V15.8302C29 11.3448 27.8799 7.88959 21.7972 7.88959C18.873 7.88959 16.9107 9.27292 16.1095 10.5844H16.0249V8.30834H10.2576V24.999H16.263V16.7344C16.263 14.5583 16.7415 12.4542 19.8674 12.4542C22.9475 12.4542 22.9934 14.9375 22.9934 16.874V25H28.9928Z" fill="white"/>
<path d="M0.478516 8.30939H6.49118V25H0.478516V8.30939Z" fill="white"/>
<path d="M3.48242 0C1.55996 0 0 1.34479 0 3.00208C0 4.65938 1.55996 6.03229 3.48242 6.03229C5.40488 6.03229 6.96483 4.65938 6.96483 3.00208C6.96362 1.34479 5.40367 0 3.48242 0V0Z" fill="white"/>
</g>
<defs>
<clipPath id="clip0">
<rect width="29" height="25" fill="white"/>
</clipPath>
</defs>
</svg>
