<svg id="Calque_1" data-name="Calque 1" xmlns="http://www.w3.org/2000/svg" xmlns:xlink="http://www.w3.org/1999/xlink" viewBox="0 0 419 400"><defs><style>.cls-1{fill:url(#Dégradé_sans_nom_10);}.cls-2{fill:url(#Dégradé_sans_nom_15);}.cls-3{fill:#7c7c7c;}</style><linearGradient id="Dégradé_sans_nom_10" x1="209.5" y1="-0.28" x2="209.5" y2="418.72" gradientUnits="userSpaceOnUse"><stop offset="0" stop-color="#e6e6e6"/><stop offset="0.5" stop-color="#e4e4e4"/><stop offset="0.69" stop-color="#ddd"/><stop offset="0.83" stop-color="#d1d1d1"/><stop offset="0.94" stop-color="silver"/><stop offset="1" stop-color="#b3b3b3"/></linearGradient><linearGradient id="Dégradé_sans_nom_15" x1="209.5" y1="-0.28" x2="209.5" y2="400" gradientUnits="userSpaceOnUse"><stop offset="0" stop-color="#999"/><stop offset="0.58" stop-color="#979797"/><stop offset="0.8" stop-color="#909090"/><stop offset="0.96" stop-color="#848484"/><stop offset="1" stop-color="gray"/></linearGradient></defs><title>Plan de travail 1</title><path class="cls-1" d="M365,205.66a185.49,185.49,0,0,0,1.4-22.74A183,183,0,1,0,224.66,361.41V400H419V205.66Z"/><path class="cls-2" d="M183.2,24.72a158.2,158.2,0,0,1,158.2,158.2,161.62,161.62,0,0,1-1.21,19.66l-3.48,28.08H394V375H249.66V330L219,337.06a159.69,159.69,0,0,1-35.82,4.06A158.19,158.19,0,0,1,71.34,71.06,157.15,157.15,0,0,1,183.2,24.72m0-25a183.2,183.2,0,1,0,41.46,361.69V400H419V205.66H365a185.49,185.49,0,0,0,1.4-22.74A183.2,183.2,0,0,0,183.2-.28Z"/><rect class="cls-3" x="95.96" y="99.47" width="13.38" height="64.69"/><rect class="cls-3" x="95.96" y="99.47" width="13.38" height="64.69" transform="translate(234.47 29.16) rotate(90)"/><rect class="cls-3" x="194.96" y="99.47" width="13.38" height="64.69"/><rect class="cls-3" x="194.96" y="99.47" width="13.38" height="64.69" transform="translate(333.47 -69.84) rotate(90)"/></svg>