<svg id="Calque_1" data-name="Calque 1" xmlns="http://www.w3.org/2000/svg" viewBox="0 0 419 400"><defs><style>.cls-1{fill:#5fff7f;}.cls-2{fill:#1e1e1e;}.cls-3{fill:#fff;}</style></defs><title>Plan de travail 2</title><path class="cls-1" d="M237.16,387.5V345.69l-15.32,3.54a171.25,171.25,0,0,1-38.64,4.39c-94.12,0-170.7-76.57-170.7-170.7S89.08,12.22,183.2,12.22,353.9,88.8,353.9,182.92a173,173,0,0,1-1.31,21.2l-1.73,14H406.5V387.5Z"/><path class="cls-2" d="M183.2,24.72a158.2,158.2,0,0,1,158.2,158.2,161.62,161.62,0,0,1-1.21,19.66l-3.48,28.08H394V375H249.66V330L219,337.06a159.69,159.69,0,0,1-35.82,4.06A158.19,158.19,0,0,1,71.34,71.06,157.15,157.15,0,0,1,183.2,24.72m0-25a183.2,183.2,0,1,0,41.46,361.69V400H419V205.66H365a185.49,185.49,0,0,0,1.4-22.74A183.2,183.2,0,0,0,183.2-.28Z"/><rect class="cls-3" x="95.96" y="99.47" width="13.38" height="64.69"/><rect class="cls-3" x="95.96" y="99.47" width="13.38" height="64.69" transform="translate(234.47 29.16) rotate(90)"/><rect class="cls-3" x="194.96" y="99.47" width="13.38" height="64.69"/><rect class="cls-3" x="194.96" y="99.47" width="13.38" height="64.69" transform="translate(333.47 -69.84) rotate(90)"/></svg>